<svg width="403" height="361" viewBox="0 0 403 361" fill="none" xmlns="http://www.w3.org/2000/svg">
<path d="M235.09 186.621C234.648 186.502 234.236 186.593 233.854 186.894L233.587 186.883C233.598 186.834 233.623 186.789 233.662 186.747C233.714 186.691 233.705 186.677 233.634 186.705L231.628 187.505C229.64 188.012 209.585 193.668 209.63 194.349C209.448 194.263 209.266 194.283 209.084 194.409C209.097 194.17 208.958 194.053 208.667 194.056L208.945 193.797C216.53 191.141 224.203 188.776 231.964 186.702C232.115 186.661 232.258 186.6 232.393 186.519C232.585 186.964 233.089 186.491 233.503 186.466C234.071 186.428 234.652 186.235 235.246 185.885L239.571 184.924C239.593 184.919 239.598 184.907 239.585 184.891C239.577 184.877 239.569 184.864 239.56 184.851C240.406 184.806 241.217 184.618 241.995 184.288L251.007 182.586C251.081 182.571 251.118 182.526 251.118 182.453L251.107 175.192C251.107 175.102 251.061 175.059 250.97 175.062C240.503 175.598 230.061 176.922 219.721 178.627L217.094 178.965C217.046 178.972 217.02 179.001 217.016 179.049C217.016 179.078 217.012 179.106 217.005 179.134C215.469 179.402 199.936 182.363 199.958 182.867L199.68 182.727L199.541 182.445L199.632 182.163L215.196 178.813C215.244 178.801 215.28 178.774 215.304 178.731L215.346 178.652L215.811 178.72C215.904 178.733 215.993 178.724 216.078 178.692C216.69 178.474 217.314 178.436 217.948 178.579C218.045 178.601 218.105 178.565 218.129 178.469C218.146 178.407 218.146 178.351 218.129 178.3C226.293 176.831 234.504 175.746 242.76 175.046L244.5 174.967L250.979 174.412C251.075 174.404 251.123 174.351 251.121 174.254C251.073 172.152 251.165 169.869 251.149 167.959C251.093 161.259 251.118 154.561 251.112 147.866C251.109 135.38 251.108 122.894 251.11 110.408C251.112 107.838 251.079 104.401 251.015 101.422C250.893 95.4602 250.861 89.498 250.92 83.5358C250.92 83.4381 250.966 83.408 251.057 83.4456C297.057 103.009 327.95 147.311 330.31 197.891C331.526 223.935 324.955 250.39 311.306 272.47C296.669 296.149 276.581 313.528 251.043 324.605C251.027 324.612 251.01 324.614 250.994 324.612C250.977 324.611 250.961 324.605 250.947 324.595C250.933 324.586 250.921 324.573 250.913 324.558C250.905 324.543 250.901 324.526 250.901 324.509V305.377C250.901 305.295 250.937 305.236 251.009 305.2C297.11 281.419 321.765 230.283 310.165 178.675C310.143 178.585 310.086 178.539 309.995 178.537C295.298 178.179 281.738 178.77 267.121 180.658C267.026 180.67 266.979 180.723 266.979 180.819L266.96 260.635C266.96 260.744 266.923 260.837 266.848 260.914C266.691 261.082 266.484 261.253 266.228 261.43C261.227 264.864 256.224 268.308 251.218 271.762C251.206 271.771 251.191 271.776 251.176 271.777C251.16 271.778 251.145 271.775 251.132 271.767C251.118 271.76 251.107 271.749 251.099 271.736C251.091 271.723 251.087 271.707 251.087 271.692C251.189 266.335 251.214 260.976 251.16 255.617C250.937 233.464 251.101 211.287 251.115 189.134C251.115 187.604 251.227 185.246 251.068 183.276C251.059 183.161 250.998 183.115 250.887 183.138L242.359 184.888C242.241 184.912 242.145 184.974 242.073 185.074C241.832 185.408 241.519 185.485 241.135 185.305C241.053 185.267 240.969 185.256 240.882 185.271C238.924 185.613 236.993 186.063 235.09 186.621ZM271.825 173.989C284.574 174.226 297.24 175.291 309.823 177.41C309.831 177.411 309.839 177.41 309.846 177.407C309.853 177.405 309.86 177.401 309.865 177.395C309.871 177.389 309.874 177.383 309.876 177.375C309.878 177.368 309.878 177.36 309.876 177.353C303.519 151.273 288.507 128.65 267.152 112.747C267.033 112.658 266.974 112.689 266.974 112.84V173.721C266.974 173.838 267.031 173.897 267.146 173.899C268.744 173.931 270.303 173.961 271.825 173.989ZM303.068 177.784C304.879 177.782 306.688 177.818 308.495 177.891C308.518 177.893 308.537 177.881 308.554 177.855C308.565 177.836 308.56 177.825 308.54 177.821C294.815 175.557 280.998 174.473 267.088 174.567C267.002 174.567 266.96 174.61 266.96 174.696L266.979 179.836C266.981 179.956 267.04 180.008 267.157 179.993C279.09 178.53 291.06 177.794 303.068 177.784Z" fill="white"/>
<path d="M209.986 146.669C211.341 149.233 212.822 150.625 214.648 152.42C216.022 153.772 219.17 155.04 221.027 155.525C223.145 156.077 225.265 156.652 227.422 156.945C233.309 157.736 239.649 158.582 245.471 156.956C246.005 156.807 246.256 156.919 246.473 157.421C246.499 157.483 246.512 157.55 246.511 157.617C246.51 157.685 246.495 157.751 246.467 157.812C246.439 157.874 246.399 157.928 246.348 157.972C246.298 158.017 246.239 158.049 246.175 158.069C243.114 158.996 239.702 159.309 236.47 159.117C230.389 158.759 226.289 158.199 221.063 156.874C219.064 156.37 217.356 155.482 215.51 154.606C213.71 153.752 211.166 150.873 210.064 149.224C208.91 147.5 207.905 145.676 207.05 143.752C206.944 143.512 206.988 143.305 207.183 143.132C207.512 142.842 207.832 142.893 208.154 143.183C209.883 144.747 211.667 146.421 213.442 147.739C215.958 149.605 217.606 150.326 220.715 151.183C220.834 151.216 220.857 151.183 220.784 151.081C219.807 149.706 218.871 148.307 217.979 146.883C217.047 145.398 216.59 143.84 216.05 142.186C215.666 141.002 215.925 139.675 215.995 138.452C216.112 136.404 217.492 133.874 218.355 132.014C221.436 125.373 224.339 118.647 227.291 111.946C227.598 111.248 227.778 110.512 227.962 109.785C228.129 109.112 228.015 108.362 228.202 107.638C228.22 107.57 228.252 107.506 228.296 107.45C228.34 107.395 228.395 107.35 228.457 107.318C228.519 107.286 228.587 107.267 228.657 107.264C228.727 107.26 228.796 107.272 228.861 107.297C232.181 108.591 235.276 113.228 236.593 116.421C238.764 121.687 239.763 127.528 239.857 133.068C239.894 135.312 239.412 137.428 238.41 139.413C236.952 142.293 234.383 143.6 232.112 145.716C229.926 147.751 227.83 149.874 225.825 152.087C225.745 152.175 225.712 152.278 225.727 152.394L225.872 153.544C225.889 153.673 225.961 153.751 226.089 153.778L229.067 154.389C229.199 154.417 229.24 154.367 229.19 154.24C228.335 152.059 229.596 150.799 231.077 149.41C233.969 146.698 236.635 143.624 239.075 140.188C240.677 137.934 241.358 135.45 241.121 132.735C240.818 129.309 240.575 125.708 239.518 122.437C238.789 120.177 237.959 117.956 237.03 115.773C236.264 113.981 235.237 112.392 234.196 110.738C232.841 108.588 230.717 106.469 228.238 105.753C228.217 105.748 228.196 105.746 228.175 105.749C228.155 105.752 228.135 105.759 228.116 105.77C228.098 105.78 228.082 105.795 228.07 105.812C228.057 105.829 228.048 105.848 228.043 105.869C227.425 108.351 226.971 111.205 225.942 113.521C222.902 120.363 219.853 127.2 216.793 134.034C216.649 134.355 216.429 134.592 216.134 134.744C216.045 134.791 215.958 134.788 215.872 134.736C207.461 129.647 197.4 128.441 188.583 133.149C186.93 134.034 184.796 135.598 182.825 136.711C182.193 137.066 181.909 136.922 181.581 136.325C177.301 128.533 173.025 120.738 168.753 112.941C168.703 112.849 168.638 112.836 168.559 112.902C167.946 113.407 167.552 113.827 167.376 114.161C163.452 121.591 162.778 128.652 162.411 137.176C162.358 138.387 162.572 139.41 162.825 140.56C162.846 140.654 162.89 140.735 162.959 140.802L171.787 149.557C171.894 149.662 171.958 149.803 171.968 149.953C171.977 150.103 171.932 150.251 171.84 150.368L170.306 152.343C170.26 152.403 170.201 152.452 170.134 152.487C170.068 152.522 169.994 152.541 169.919 152.545C169.844 152.548 169.769 152.535 169.699 152.506C169.63 152.477 169.567 152.433 169.516 152.377C167.142 149.774 164.501 147.528 162.038 145.001C161.336 144.279 160.46 143.775 159.666 143.11C159.594 143.05 159.547 142.975 159.525 142.885C158.503 138.596 158.798 133.893 159.43 129.447C159.831 126.643 160.081 123.879 160.855 121.171C162.285 116.159 163.488 111.51 165.87 108.126C167.153 106.308 169.889 104.536 171.996 106.286C172.066 106.344 172.106 106.419 172.115 106.511C172.221 107.678 172.124 108.858 172.416 109.951C172.954 111.967 173.548 113.551 174.197 114.702C177.771 121.047 181.272 127.373 185.107 133.564C185.119 133.582 185.133 133.598 185.151 133.61C185.168 133.622 185.188 133.631 185.209 133.635C185.229 133.64 185.251 133.64 185.272 133.636C185.292 133.632 185.312 133.623 185.33 133.612C194.74 127.291 205.858 127.57 215.627 133.113C215.645 133.123 215.664 133.129 215.684 133.131C215.704 133.133 215.724 133.131 215.744 133.124C215.763 133.118 215.78 133.108 215.795 133.094C215.81 133.08 215.822 133.064 215.83 133.045C218.875 126.27 221.913 119.489 224.942 112.704C225.083 112.387 225.196 112.058 225.279 111.718C225.845 109.391 226.43 107.068 227.033 104.75C227.059 104.654 227.113 104.582 227.197 104.533C228.182 103.953 230.837 105.395 231.539 105.967C232.702 106.906 234.046 108.174 234.973 109.594C236.385 111.756 237.278 113.223 237.653 113.995C238.688 116.121 239.762 118.958 240.873 122.504C241.864 125.663 241.961 128.641 242.365 132.341C242.755 135.891 241.778 138.774 239.582 141.704C237.929 143.911 236.165 146.025 234.291 148.046C233.303 149.112 231.641 150.523 230.473 151.966C229.66 152.969 231.455 156.06 229.749 155.812C229.042 155.709 227.691 155.436 225.697 154.995C224.316 154.691 224.475 153.082 224.45 151.943C224.448 151.846 224.479 151.76 224.542 151.687C226.699 149.162 229.537 146.325 231.444 144.572C232.735 143.389 234.603 142.2 235.677 141.045C238.087 138.449 238.624 135.618 238.505 131.893C238.238 123.741 236.15 114.403 229.512 109.047C229.505 109.041 229.496 109.037 229.487 109.035C229.478 109.034 229.468 109.035 229.459 109.038C229.451 109.042 229.443 109.047 229.437 109.055C229.431 109.062 229.427 109.071 229.426 109.081C229.159 110.554 228.755 111.791 228.101 113.271C225.299 119.61 222.546 125.97 219.643 132.262C218.925 133.819 218.244 135.393 217.6 136.984C217.138 138.117 217.214 139.213 217.141 140.411C217.044 142.042 218.107 144.693 218.967 146.068C220.056 147.814 221.309 149.629 222.724 151.515C223.012 151.898 223.005 152.238 222.705 152.535C222.638 152.601 222.557 152.636 222.463 152.642C220.835 152.735 219.24 152.112 217.723 151.6C214.934 150.653 212.24 148.571 210.05 146.618C209.937 146.516 209.915 146.533 209.986 146.669ZM170.401 149.988C167.657 147.208 164.916 144.506 162.18 141.881C160.229 140.013 161.57 130.07 161.86 127.587C162.431 122.713 163.891 118.039 166.24 113.567C166.433 113.2 167.049 112.504 168.088 111.479C168.642 110.932 169.051 110.845 169.469 111.603C173.794 119.494 178.121 127.385 182.449 135.277C182.501 135.371 182.574 135.39 182.666 135.336L184.022 134.516C184.113 134.462 184.13 134.388 184.075 134.296C180.573 128.723 177.459 123.017 174.186 117.317C172.53 114.434 170.763 110.78 170.958 107.365C170.962 107.296 170.947 107.226 170.914 107.165C170.881 107.103 170.832 107.051 170.771 107.015C170.293 106.737 169.789 106.721 169.26 106.968C167.086 107.985 165.689 110.388 164.932 112.589C163.964 115.399 163.051 118.23 162.194 121.081C161.267 124.169 160.994 127.435 160.552 130.636C160.062 134.189 159.895 138.706 160.668 142.205C160.689 142.296 160.737 142.366 160.813 142.417C161.861 143.099 162.813 143.892 163.669 144.798C165.628 146.869 167.807 148.652 169.769 150.735C169.842 150.812 169.911 150.809 169.978 150.726L170.409 150.191C170.433 150.161 170.446 150.124 170.444 150.087C170.442 150.049 170.427 150.014 170.401 149.988Z" fill="white"/>
<path d="M170.401 149.988C170.427 150.014 170.442 150.049 170.444 150.087C170.446 150.124 170.433 150.161 170.409 150.191L169.978 150.726C169.911 150.809 169.842 150.812 169.769 150.735C167.807 148.652 165.628 146.869 163.669 144.798C162.813 143.892 161.861 143.099 160.813 142.417C160.737 142.366 160.689 142.296 160.668 142.205C159.895 138.706 160.062 134.189 160.552 130.636C160.994 127.435 161.267 124.169 162.194 121.081C163.051 118.23 163.964 115.399 164.932 112.589C165.689 110.388 167.086 107.985 169.26 106.968C169.789 106.721 170.293 106.737 170.771 107.015C170.832 107.051 170.881 107.103 170.914 107.164C170.947 107.226 170.962 107.296 170.958 107.365C170.763 110.78 172.53 114.434 174.186 117.317C177.459 123.017 180.574 128.723 184.075 134.296C184.13 134.388 184.113 134.461 184.022 134.516L182.666 135.336C182.574 135.39 182.501 135.371 182.449 135.277C178.121 127.385 173.794 119.494 169.469 111.603C169.051 110.845 168.642 110.932 168.088 111.479C167.049 112.504 166.433 113.2 166.24 113.567C163.891 118.039 162.431 122.713 161.86 127.587C161.57 130.07 160.229 140.013 162.18 141.881C164.916 144.506 167.657 147.208 170.401 149.988Z" fill="black"/>
<path d="M271.825 173.989C270.303 173.961 268.744 173.931 267.146 173.899C267.031 173.897 266.974 173.838 266.974 173.721V112.84C266.974 112.689 267.033 112.658 267.152 112.747C288.507 128.65 303.519 151.273 309.876 177.353C309.878 177.36 309.878 177.368 309.876 177.375C309.874 177.382 309.871 177.389 309.865 177.395C309.86 177.4 309.853 177.405 309.846 177.407C309.839 177.41 309.831 177.411 309.823 177.409C297.24 175.291 284.574 174.225 271.825 173.989Z" fill="black"/>
<path d="M218.733 142.144C218.648 142.131 218.567 142.099 218.496 142.049C218.426 141.999 218.368 141.933 218.327 141.856C218.287 141.78 218.265 141.695 218.263 141.608C218.26 141.521 218.279 141.436 218.316 141.357C222.455 132.549 226.61 123.732 230.779 114.905C231.516 113.341 232.245 115.361 232.44 116.004C233.997 121.173 235.536 126.349 237.058 131.529C238.02 134.801 237.517 137.024 235.235 139.455C233.171 141.653 230.995 143.732 228.705 145.691C227.445 146.77 226.095 147.331 224.611 148.007C223.704 148.418 222.769 147.706 222.46 146.874C222.026 145.71 221.496 144.591 220.871 143.519C220.32 142.572 219.766 142.296 218.733 142.144ZM220.03 141.191C221.747 141.631 222.343 143.586 223.081 144.992C223.334 145.477 223.44 146.162 223.779 146.643C223.829 146.713 223.902 146.763 223.984 146.785C224.066 146.806 224.153 146.798 224.23 146.762C225.521 146.156 226.713 145.705 227.804 144.781C230.895 142.166 233.336 139.794 235.129 137.663C237.158 135.246 235.911 131.91 235.087 129.233C233.827 125.132 232.581 121.02 231.349 116.897C231.346 116.886 231.339 116.876 231.33 116.868C231.321 116.861 231.31 116.856 231.298 116.855C231.286 116.854 231.274 116.857 231.264 116.863C231.254 116.869 231.246 116.878 231.241 116.889L219.916 140.94C219.905 140.964 219.898 140.99 219.898 141.017C219.898 141.043 219.903 141.069 219.914 141.093C219.925 141.117 219.941 141.139 219.961 141.156C219.981 141.172 220.005 141.185 220.03 141.191Z" fill="black"/>
<path d="M172.739 147.038C169.818 143.91 166.922 140.746 164.05 137.545C163.959 137.443 163.907 137.313 163.905 137.179C163.844 131.433 164.275 125.412 165.92 119.875C166.071 119.374 167.877 113.944 168.959 115.928C172.962 123.265 176.962 130.603 180.96 137.942C181.122 138.237 181.056 138.559 180.763 138.909C177.169 143.192 174.869 145.912 173.863 147.069C173.511 147.474 173.136 147.464 172.739 147.038ZM165.481 137.238L173.187 145.674C173.258 145.751 173.326 145.749 173.393 145.668L179.558 138.334C179.624 138.253 179.633 138.167 179.583 138.075L168.392 117.542C168.316 117.403 168.244 117.406 168.177 117.551C165.578 123.299 165.108 130.816 165.172 136.891C165.173 136.953 165.196 137.005 165.238 137.046C165.27 137.076 165.304 137.102 165.341 137.122C165.393 137.154 165.44 137.193 165.481 137.238Z" fill="black"/>
<path d="M220.03 141.191C220.005 141.185 219.981 141.173 219.961 141.156C219.941 141.139 219.925 141.117 219.914 141.093C219.903 141.069 219.898 141.043 219.898 141.017C219.898 140.99 219.904 140.964 219.916 140.94L231.241 116.889C231.246 116.878 231.254 116.869 231.264 116.863C231.274 116.857 231.286 116.854 231.298 116.855C231.31 116.856 231.321 116.861 231.33 116.868C231.339 116.876 231.346 116.886 231.349 116.897C232.581 121.02 233.827 125.132 235.087 129.233C235.911 131.91 237.158 135.246 235.129 137.663C233.336 139.794 230.895 142.166 227.804 144.781C226.713 145.705 225.521 146.156 224.23 146.762C224.153 146.798 224.066 146.806 223.984 146.785C223.902 146.763 223.829 146.713 223.779 146.643C223.44 146.162 223.334 145.477 223.081 144.992C222.343 143.586 221.747 141.631 220.03 141.191Z" fill="black"/>
<path d="M165.341 137.122C165.304 137.102 165.27 137.076 165.238 137.046C165.196 137.005 165.173 136.953 165.172 136.891C165.108 130.816 165.578 123.299 168.177 117.551C168.244 117.406 168.316 117.403 168.392 117.542L179.583 138.075C179.633 138.167 179.624 138.253 179.558 138.334L173.393 145.668C173.326 145.749 173.258 145.751 173.187 145.674L165.48 137.238C165.44 137.193 165.393 137.154 165.341 137.122Z" fill="black"/>
<path d="M192.466 184.135C192.028 184.423 191.56 184.497 191.063 184.358C183.384 174.541 182.678 159.526 185.335 147.765C185.755 145.907 186.271 144.176 186.883 142.572C186.905 142.513 186.888 142.498 186.833 142.527C185.564 143.169 184.704 143.987 184.253 144.981C181.734 150.543 179.104 155.995 177.156 161.802C175.675 166.211 173.942 170.515 171.957 174.713C171.041 176.652 169.792 178.621 168.653 180.579C167.162 183.149 164.217 185.516 161.915 187.35C161.339 187.812 158.692 189.317 158.306 188.086C158.271 187.974 158.279 187.853 158.328 187.748C158.378 187.642 158.465 187.56 158.573 187.517C159.689 187.077 160.66 186.775 161.598 185.984C163.516 184.366 166.068 182.391 167.367 180.23C168.664 178.072 170.003 175.992 171.038 173.676C172.168 171.149 173.354 168.661 174.284 166.029C175.447 162.74 176.647 159.465 177.885 156.204C179.268 152.56 181.063 148.926 182.7 145.308C183.229 144.141 183.724 143.149 184.801 142.36C186.313 141.252 187.771 140.075 189.173 138.83C189.628 138.426 190.046 138.462 190.426 138.937C190.503 139.033 190.539 139.156 190.529 139.28C190.518 139.403 190.46 139.518 190.367 139.599C189.78 140.115 189.221 140.551 188.862 141.267C188.222 142.544 187.723 143.801 187.364 145.037C183.76 157.438 184.069 173.558 192.466 184.135Z" fill="#FF8300"/>
<path d="M218.129 178.3C218.146 178.351 218.146 178.407 218.129 178.469C218.105 178.565 218.045 178.601 217.948 178.579C217.314 178.436 216.69 178.474 216.078 178.692C215.993 178.724 215.904 178.733 215.811 178.72L215.346 178.652C210.448 177.184 206.51 174.891 202.755 171.326C199.902 168.617 197.046 165.907 194.189 163.194C194.111 163.121 194.065 163.138 194.052 163.245C193.788 165.764 194.28 168.869 195.146 171.253C196.335 174.529 197.6 177.774 198.939 180.988C199.106 181.388 199.404 181.785 199.632 182.163L199.541 182.445C199.216 182.349 198.914 182.396 198.636 182.586L198.31 182.445C198.197 182.253 198.098 182.057 198.013 181.856C196.768 178.967 195.59 176.051 194.481 173.107C192.959 169.064 192.458 165.671 192.858 161.549C192.87 161.433 192.915 161.322 192.988 161.233C193.062 161.143 193.16 161.077 193.27 161.045C193.495 160.979 193.699 161.032 193.883 161.205C197.768 164.855 201.645 168.514 205.513 172.183C205.992 172.637 207.008 173.342 208.561 174.296C211.472 176.085 214.909 177.198 218.129 178.3Z" fill="#FF8300"/>
<path d="M244.5 174.967L242.76 175.045C239.313 174.01 235.845 173.097 232.357 172.304C228.725 171.478 225.009 170.551 221.625 169.018C219.234 167.934 217.155 165.725 215.538 163.701C215.487 163.637 215.455 163.56 215.445 163.478C215.435 163.396 215.448 163.314 215.483 163.239C215.727 162.71 216.086 162.704 216.574 162.952C218.263 163.811 219.908 164.817 221.734 165.223C224.92 165.93 227.895 166.175 231.271 165.826C236.339 165.302 240.812 164.786 245.527 163.098C245.597 163.073 245.673 163.064 245.747 163.071C245.822 163.078 245.894 163.101 245.959 163.139C246.024 163.177 246.08 163.229 246.123 163.291C246.166 163.353 246.195 163.424 246.209 163.499C246.281 163.904 246.111 164.231 245.71 164.372C242.944 165.36 240.366 166.015 237.976 166.336C233.367 166.958 230.37 167.294 228.984 167.345C226.675 167.427 223.897 167.076 220.648 166.291C220.217 166.187 219.899 166.063 219.476 165.837C219.244 165.713 219.223 165.743 219.412 165.927C220.893 167.384 221.953 167.807 223.999 168.601C227.4 169.92 231.166 170.748 234.711 171.566C238.015 172.326 240.901 173.166 243.985 174.045C244.417 174.167 244.589 174.474 244.5 174.967Z" fill="#FF8300"/>
<path d="M215.346 178.652L215.304 178.731C215.28 178.774 215.244 178.801 215.196 178.813L199.633 182.163C199.404 181.785 199.107 181.388 198.94 180.988C197.6 177.774 196.335 174.529 195.146 171.253C194.281 168.869 193.788 165.764 194.052 163.245C194.065 163.138 194.111 163.121 194.189 163.194C197.046 165.907 199.902 168.617 202.755 171.326C206.51 174.89 210.448 177.184 215.346 178.652Z" fill="black"/>
<path d="M303.068 177.784C291.06 177.794 279.09 178.53 267.157 179.994C267.04 180.009 266.981 179.956 266.979 179.836L266.96 174.696C266.96 174.61 267.002 174.567 267.088 174.567C280.998 174.473 294.815 175.558 308.54 177.821C308.56 177.825 308.565 177.836 308.554 177.855C308.537 177.881 308.518 177.893 308.495 177.892C306.688 177.818 304.879 177.783 303.068 177.784Z" fill="#FF8300"/>
<path d="M241.995 184.288C241.896 184.194 241.782 184.131 241.652 184.099C237.96 183.169 234.252 182.311 230.528 181.526C226.76 180.734 223.314 179.686 219.721 178.627C230.061 176.922 240.503 175.598 250.97 175.062C251.061 175.059 251.107 175.102 251.107 175.192L251.118 182.453C251.118 182.527 251.081 182.571 251.007 182.586L241.995 184.288Z" fill="#FF8300"/>
<path d="M219.721 178.627C223.314 179.686 226.76 180.734 230.528 181.526C234.252 182.311 237.96 183.169 241.652 184.099C241.782 184.131 241.896 184.193 241.995 184.287C241.217 184.618 240.406 184.806 239.56 184.851C236.418 184.105 233.268 183.4 230.108 182.735C225.719 181.811 221.5 180.492 217.222 179.289C217.174 179.276 217.101 179.224 217.005 179.134C217.012 179.106 217.016 179.078 217.016 179.049C217.02 179.001 217.046 178.972 217.094 178.965L219.721 178.627Z" fill="#FF8300"/>
<path d="M217.005 179.134C217.101 179.224 217.174 179.276 217.222 179.289C221.5 180.492 225.719 181.811 230.108 182.735C233.268 183.4 236.418 184.105 239.56 184.851C239.569 184.864 239.577 184.877 239.585 184.891C239.598 184.907 239.593 184.919 239.571 184.924L235.246 185.885C235.349 185.296 235.839 183.893 234.608 184.068C234.517 184.081 234.441 184.123 234.38 184.195L232.393 186.519C232.258 186.6 232.115 186.661 231.964 186.702C224.203 188.776 216.53 191.141 208.945 193.797C207.119 192.287 205.988 191.291 205.552 190.81C203.782 188.851 201.917 186.204 199.958 182.867C199.936 182.363 215.469 179.402 217.005 179.134Z" fill="#FF8300"/>
<path d="M199.541 182.445L199.68 182.726C199.249 182.648 198.957 182.751 198.803 183.036C198.753 183.128 198.754 183.221 198.806 183.313C200.262 185.954 201.949 188.427 203.866 190.731C204.918 191.997 206.192 193.107 207.425 194.279C207.154 194.54 206.826 194.685 206.44 194.713C201.223 192.307 196.7 188.949 192.872 184.64C194.353 184.166 196.162 183.669 198.299 183.149C198.552 183.087 198.664 182.899 198.636 182.586C198.914 182.396 199.216 182.349 199.541 182.445Z" fill="black"/>
<path d="M199.68 182.727L199.958 182.867C201.917 186.204 203.782 188.851 205.552 190.81C205.988 191.291 207.119 192.287 208.945 193.797L208.667 194.056L207.425 194.279C206.192 193.107 204.918 191.997 203.866 190.732C201.949 188.427 200.262 185.954 198.806 183.313C198.754 183.221 198.753 183.129 198.803 183.036C198.957 182.751 199.249 182.648 199.68 182.727Z" fill="#FF8300"/>
<path d="M173.738 190.041C173.369 190.331 172.951 190.502 172.486 190.557L168.959 186.964C168.944 186.948 168.924 186.938 168.902 186.936C168.88 186.933 168.857 186.938 168.839 186.95C168.82 186.962 168.806 186.98 168.798 187.001C168.791 187.022 168.791 187.045 168.798 187.066C169.366 188.759 169.497 189.041 167.671 189.576C167.574 189.605 167.497 189.661 167.44 189.745L165.642 192.341C165.584 192.425 165.574 192.514 165.611 192.608C165.684 192.796 165.799 192.954 165.956 193.082C165.619 193.431 165.198 193.592 164.693 193.563C164.033 192.963 164.05 192.431 164.551 191.698C165.294 190.613 166.296 188.537 167.64 188.286C167.755 188.263 167.8 188.195 167.774 188.08L167.022 184.848C166.982 184.672 167.018 184.515 167.131 184.378C167.47 183.972 167.821 183.958 168.183 184.335C170.022 186.25 171.873 188.152 173.738 190.041Z" fill="black"/>
<path d="M235.246 185.885C234.652 186.234 234.071 186.428 233.503 186.466C233.089 186.491 232.585 186.964 232.393 186.519L234.38 184.194C234.441 184.123 234.517 184.081 234.608 184.068C235.838 183.893 235.349 185.296 235.246 185.885Z" fill="#FF8300"/>
<path d="M192.872 184.64C196.7 188.949 201.223 192.307 206.44 194.713C206.44 194.741 206.44 194.769 206.44 194.797C206.44 194.835 206.422 194.858 206.387 194.865L204.642 195.265C199.568 192.752 195.2 189.324 191.539 184.981C191.947 184.727 192.392 184.613 192.872 184.64Z" fill="#FF8300"/>
<path d="M191.539 184.981C195.2 189.324 199.568 192.752 204.642 195.265C204.638 195.29 204.634 195.317 204.628 195.347C204.623 195.383 204.602 195.407 204.567 195.42C197.969 197.969 191.477 200.779 185.091 203.851C185.745 202.918 185.664 202.383 184.879 201.566C181.328 197.873 177.753 194.203 174.156 190.557C179.885 188.489 185.68 186.63 191.539 184.981Z" fill="#FF8300"/>
<path d="M235.09 186.62L234.809 188.587C234.798 188.677 234.832 188.741 234.912 188.779C235.755 189.173 236.715 189.475 237.258 190.295C237.891 191.247 238.488 192.218 239.05 193.208C239.102 193.298 239.108 193.39 239.067 193.484C238.989 193.661 238.877 193.834 238.73 194.003C236.665 196.373 234.591 198.735 232.507 201.086C232.206 201.427 232.048 201.622 231.555 201.611C229.276 201.557 227.77 201.439 225.588 202.059C223.657 202.608 221.72 203.958 219.894 205.009C219.017 205.516 218.071 205.445 217.701 204.437C217.664 204.335 217.679 204.243 217.748 204.161L231.628 187.505L233.634 186.705C233.705 186.677 233.714 186.691 233.662 186.747C233.623 186.789 233.598 186.834 233.587 186.883C233.529 187.11 233.425 187.315 233.272 187.497C231.738 189.33 230.197 191.169 228.65 193.014C228.583 193.093 228.588 193.167 228.666 193.236C232.315 196.53 228.296 200.292 224.851 197.849C224.765 197.789 224.689 197.798 224.622 197.877L220.125 203.27C220.112 203.281 220.104 203.297 220.103 203.314C220.101 203.332 220.107 203.349 220.118 203.362C220.129 203.375 220.145 203.383 220.162 203.384C220.179 203.386 220.195 203.38 220.208 203.369C221.809 202.397 223.473 201.337 225.176 200.827C227.158 200.234 229.203 200.072 231.313 200.343C231.408 200.354 231.487 200.324 231.55 200.252L237.578 193.405C237.645 193.33 237.651 193.25 237.597 193.166L236.12 190.872C236.053 190.771 235.966 190.694 235.858 190.641L233.84 189.658C233.722 189.601 233.625 189.505 233.564 189.387C233.503 189.269 233.482 189.133 233.503 189.001L233.854 186.894C234.236 186.593 234.648 186.502 235.09 186.62ZM225.791 197.052C228.369 198.421 230.253 195.705 227.804 194.11C227.713 194.052 227.634 194.065 227.567 194.149L225.677 196.482C225.486 196.719 225.524 196.909 225.791 197.052Z" fill="black"/>
<path d="M233.587 186.883L233.854 186.894L233.503 189.001C233.482 189.133 233.503 189.269 233.564 189.387C233.625 189.506 233.722 189.601 233.84 189.658L235.858 190.641C235.966 190.694 236.053 190.771 236.12 190.872L237.597 193.166C237.651 193.251 237.645 193.33 237.578 193.406L231.55 200.252C231.487 200.324 231.408 200.354 231.313 200.343C229.203 200.072 227.158 200.234 225.176 200.827C223.473 201.337 221.809 202.397 220.208 203.369C220.195 203.38 220.179 203.386 220.162 203.384C220.145 203.383 220.129 203.375 220.118 203.362C220.107 203.349 220.101 203.332 220.103 203.315C220.104 203.297 220.112 203.281 220.125 203.27L224.622 197.877C224.689 197.798 224.765 197.789 224.851 197.849C228.296 200.292 232.315 196.53 228.666 193.236C228.588 193.167 228.583 193.093 228.65 193.014C230.197 191.169 231.738 189.33 233.272 187.497C233.425 187.315 233.529 187.11 233.587 186.883Z" fill="white"/>
<path d="M172.486 190.557C172.486 190.566 172.486 190.577 172.486 190.588C172.486 190.607 172.477 190.619 172.461 190.625L165.956 193.082C165.799 192.954 165.684 192.796 165.611 192.608C165.574 192.514 165.584 192.425 165.642 192.341L167.44 189.745C167.497 189.661 167.574 189.605 167.671 189.576C169.497 189.041 169.366 188.759 168.798 187.066C168.791 187.045 168.791 187.022 168.798 187.001C168.806 186.98 168.82 186.962 168.839 186.95C168.857 186.938 168.88 186.933 168.902 186.936C168.924 186.938 168.944 186.948 168.959 186.964L172.486 190.557Z" fill="white"/>
<path d="M174.156 190.557C177.753 194.203 181.328 197.873 184.879 201.566C185.664 202.383 185.745 202.918 185.091 203.851L184.261 204.259C180.754 202.633 178.075 201.427 176.223 200.641C174.329 199.839 172.386 199.79 170.396 200.495C170.299 200.529 170.207 200.521 170.12 200.472C169.575 200.168 169.305 199.669 168.943 199.202C167.674 197.552 166.406 195.848 165.141 194.09C165.421 193.748 165.823 193.589 166.346 193.611L170.418 199.032C170.477 199.111 170.554 199.137 170.649 199.109C172.677 198.504 174.589 198.582 176.385 199.342C178.979 200.441 181.549 201.587 184.097 202.78C184.112 202.788 184.129 202.79 184.144 202.786C184.16 202.782 184.174 202.772 184.184 202.758C184.194 202.745 184.198 202.728 184.197 202.711C184.196 202.693 184.189 202.677 184.178 202.664L178.172 196.471C178.092 196.389 178.023 196.396 177.966 196.494C175.678 200.351 171.086 196.24 173.977 192.38C174.037 192.299 174.032 192.222 173.964 192.149L172.962 191.109C173.283 190.771 173.681 190.587 174.156 190.557ZM174.651 196.175C175.706 197.384 177.459 195.964 176.797 195.127C176.27 194.464 175.69 193.864 175.057 193.327C175.039 193.311 175.019 193.3 174.996 193.293C174.973 193.287 174.95 193.285 174.927 193.289C174.903 193.292 174.881 193.301 174.862 193.313C174.842 193.326 174.825 193.343 174.812 193.363C174.32 194.144 173.994 195.42 174.651 196.175Z" fill="black"/>
<path d="M172.962 191.109L173.964 192.149C174.032 192.222 174.037 192.299 173.977 192.38C171.086 196.24 175.678 200.351 177.966 196.494C178.023 196.396 178.092 196.389 178.172 196.471L184.178 202.664C184.189 202.677 184.196 202.693 184.197 202.711C184.198 202.728 184.194 202.745 184.184 202.759C184.174 202.772 184.16 202.782 184.144 202.786C184.128 202.79 184.112 202.788 184.097 202.78C181.549 201.587 178.979 200.441 176.385 199.342C174.589 198.582 172.677 198.504 170.649 199.109C170.554 199.137 170.477 199.111 170.418 199.033L166.346 193.611C168.402 192.7 170.497 191.871 172.63 191.123C172.682 191.104 172.793 191.1 172.962 191.109Z" fill="white"/>
<path d="M174.651 196.175C173.994 195.42 174.32 194.144 174.812 193.363C174.825 193.343 174.842 193.326 174.862 193.313C174.881 193.3 174.903 193.292 174.927 193.288C174.95 193.285 174.973 193.287 174.996 193.293C175.019 193.3 175.039 193.311 175.057 193.326C175.69 193.864 176.27 194.464 176.797 195.127C177.459 195.964 175.706 197.384 174.651 196.175Z" fill="white"/>
<path d="M165.141 194.09C166.406 195.849 167.674 197.552 168.943 199.202C169.305 199.669 169.575 200.168 170.12 200.472C170.207 200.521 170.299 200.529 170.396 200.495C172.386 199.79 174.329 199.839 176.223 200.641C178.075 201.427 180.754 202.633 184.261 204.259C179.049 206.887 173.931 209.694 168.907 212.679L167.465 207.429C167.435 207.317 167.363 207.254 167.248 207.24C166.48 207.156 166.335 207.643 166.41 208.291C166.62 210.048 166.77 211.811 166.861 213.58C166.9 213.82 166.85 213.932 166.644 214.062C162.239 216.812 157.966 219.771 153.825 222.938C153.741 223.002 153.699 222.981 153.699 222.876V199.354C153.699 199.286 153.718 199.219 153.754 199.161C153.79 199.104 153.842 199.058 153.903 199.03C157.617 197.273 161.363 195.627 165.141 194.09Z" fill="#FF8300"/>
<path d="M225.791 197.052C225.524 196.909 225.486 196.719 225.677 196.482L227.567 194.149C227.634 194.065 227.713 194.052 227.804 194.11C230.253 195.705 228.369 198.421 225.791 197.052Z" fill="#FF8300"/>
<path d="M209.63 194.349L214.472 197.79C214.578 197.865 214.652 197.976 214.682 198.102C214.713 198.229 214.696 198.362 214.636 198.477C214.468 198.799 214.198 198.911 213.827 198.815C211.004 198.07 208.283 197.051 205.664 195.758C206.163 195.334 206.743 195.122 207.403 195.124C208.208 195.571 209.046 195.942 209.916 196.237C210.118 196.305 210.133 196.275 209.961 196.147L208.11 194.761C208.401 194.565 208.726 194.448 209.084 194.409C209.266 194.283 209.448 194.263 209.63 194.349Z" fill="#FF8300"/>
<path d="M194.595 238.939C194.609 240.049 193.44 240.188 193.312 239.148C192.377 231.559 191.421 223.972 190.445 216.387C190.362 215.735 190.187 215.107 189.922 214.504C188.566 211.403 187.217 208.297 185.875 205.186C185.844 205.114 185.827 205.036 185.826 204.957C185.825 204.879 185.84 204.8 185.87 204.727C186.223 203.845 186.911 204.468 187.25 204.902C189.44 207.686 191.632 210.468 193.827 213.248C194.176 213.691 194.352 214.113 194.356 214.513C194.409 222.656 194.489 230.798 194.595 238.939ZM189.109 209.554C189.997 211.515 191.461 214.085 191.717 216.206C192.185 220.095 192.665 223.985 193.159 227.877C193.203 228.225 193.226 228.223 193.226 227.871C193.228 223.421 193.186 218.972 193.1 214.524C193.099 214.423 193.066 214.333 193.003 214.256L189.226 209.478C188.989 209.177 188.95 209.202 189.109 209.554Z" fill="black"/>
<path d="M209.337 239.68C209.242 239.643 209.16 239.577 209.103 239.492C209.045 239.407 209.014 239.307 209.014 239.204V214.71C209.014 214.54 209.071 214.376 209.176 214.245C211.508 211.26 213.879 208.235 216.29 205.169C216.484 204.921 216.67 204.733 216.846 204.603C216.93 204.541 217.02 204.528 217.116 204.564C217.687 204.769 217.759 205.254 217.486 205.769C215.842 208.85 214.199 211.931 212.557 215.011C212.335 215.428 212.204 215.873 212.165 216.344C211.545 223.881 210.922 231.415 210.295 238.948C210.245 239.551 209.966 239.923 209.337 239.68ZM212.599 211.926L210.378 214.78C210.317 214.859 210.287 214.949 210.289 215.051L210.345 223.532C210.345 223.553 210.355 223.564 210.375 223.566C210.384 223.566 210.935 216.06 210.96 215.769C210.997 215.366 211.125 214.976 211.344 214.6C211.825 213.774 212.279 212.905 212.708 211.994C212.873 211.641 212.837 211.618 212.599 211.926Z" fill="black"/>
<path d="M219.574 262.202C219.231 262.059 219.14 261.775 219.301 261.348C222.993 251.601 226.061 241.656 228.505 231.515C230.572 222.945 232.631 214.374 234.683 205.8C234.781 205.4 234.998 205.186 235.379 205.11C235.438 205.098 235.499 205.099 235.558 205.112C235.617 205.125 235.672 205.15 235.721 205.186C235.77 205.222 235.811 205.267 235.842 205.319C235.872 205.372 235.892 205.43 235.9 205.49C235.968 206.045 235.987 206.588 235.955 207.122C235.3 218.203 234.657 229.285 234.024 240.368C233.965 241.399 234.077 242.261 233.503 243.092C229.295 249.201 225.079 255.304 220.854 261.402C220.506 261.903 220.311 262.509 219.574 262.202ZM234.299 213.186C234.21 213.29 234.038 213.977 233.996 214.144C232.436 220.677 230.871 227.208 229.301 233.738C227.4 241.644 224.923 249.367 222.193 257.048C222.188 257.062 222.189 257.077 222.194 257.09C222.199 257.104 222.209 257.115 222.221 257.122C222.234 257.128 222.248 257.13 222.261 257.126C222.274 257.123 222.286 257.114 222.293 257.102L232.574 242.194C232.628 242.115 232.657 242.027 232.663 241.931L234.311 213.191C234.312 213.176 234.309 213.174 234.299 213.186Z" fill="black"/>
<path d="M168.907 212.678L167.278 213.808C167.2 213.861 167.12 213.866 167.036 213.822C166.951 213.775 166.892 213.695 166.861 213.58C166.77 211.811 166.62 210.048 166.41 208.291C166.335 207.643 166.48 207.156 167.248 207.24C167.363 207.253 167.435 207.316 167.465 207.429L168.907 212.678Z" fill="black"/>
<path d="M97.2516 243.721C107.61 228.739 122.37 216.832 137.833 207.66C137.855 207.647 137.88 207.641 137.905 207.641C137.93 207.641 137.955 207.647 137.977 207.66C137.999 207.673 138.018 207.692 138.03 207.714C138.043 207.736 138.05 207.761 138.05 207.787C137.974 216.993 137.951 226.08 137.983 235.048C137.986 235.815 138.295 236.719 137.641 237.392C127.268 248.071 118.999 261.185 115.748 275.938C115.745 275.953 115.738 275.967 115.727 275.978C115.716 275.989 115.703 275.997 115.688 276.001C115.673 276.004 115.658 276.003 115.643 275.998C115.629 275.993 115.616 275.984 115.606 275.972C107.756 266.336 101.626 255.681 97.2154 244.008C97.1982 243.961 97.1925 243.91 97.1988 243.86C97.2051 243.81 97.2232 243.763 97.2516 243.721Z" fill="#FF8300"/>
<path d="M189.226 209.478L193.003 214.256C193.066 214.333 193.099 214.423 193.1 214.524C193.186 218.972 193.228 223.421 193.226 227.871C193.226 228.223 193.203 228.225 193.159 227.877C192.665 223.985 192.185 220.095 191.717 216.206C191.461 214.085 189.997 211.515 189.109 209.554C188.95 209.202 188.989 209.177 189.226 209.478Z" fill="white"/>
<path d="M188.472 301.72C187.584 300.956 186.655 299.897 185.898 298.801C184.638 296.973 183.317 295.189 181.934 293.447C180.816 292.033 180.003 289.136 179.97 287.344C179.906 283.815 180.24 280.688 180.969 277.964C181.778 274.947 183.214 271.585 185.277 267.877C185.692 267.133 185.875 265.936 185.778 264.963C184.513 252.447 183.234 239.934 181.943 227.423C181.887 226.896 181.741 226.396 181.506 225.924C179.218 221.382 176.939 216.838 174.668 212.293C174.53 212.018 174.542 211.742 174.704 211.464C174.742 211.399 174.793 211.344 174.855 211.302C174.917 211.26 174.987 211.233 175.061 211.223C175.135 211.213 175.21 211.22 175.28 211.243C175.351 211.266 175.416 211.305 175.469 211.357C175.632 211.513 175.785 211.679 175.926 211.856C178.98 215.669 182.032 219.483 185.082 223.298C185.53 223.862 185.984 224.324 186.059 225.088C187.36 238.242 188.666 251.395 189.978 264.546C190.111 265.896 189.282 268.114 188.55 269.241C186.424 272.526 184.612 276.46 184.361 280.334C184.048 285.188 185.611 289.397 189.051 292.963C191.322 295.315 196.479 296.178 199.574 296.2C205.914 296.242 210.634 296.834 215.466 294.135C217.18 293.177 218.344 291.117 219.131 289.376C219.465 288.632 219.73 287.675 219.924 286.505C220.147 285.172 220.473 283.856 220.4 282.523C220.203 278.773 219.638 275.163 218.024 271.757C217.189 269.999 215.638 268.542 214.311 267.105C214.296 267.089 214.285 267.07 214.277 267.05C214.27 267.029 214.267 267.008 214.269 266.986C215.295 253.896 216.388 240.932 217.548 228.097C217.639 227.074 217.598 226.302 218.16 225.381C221.051 220.658 223.887 215.902 226.668 211.112C226.932 210.653 227.158 210.193 227.745 210.43C227.89 210.488 228.006 210.602 228.068 210.747C228.13 210.892 228.133 211.055 228.076 211.202C226.293 215.866 224.508 220.519 222.722 225.161C222.464 225.831 222.297 226.525 222.221 227.24C220.848 239.954 219.457 252.664 218.049 265.372C218.039 265.466 218.054 265.556 218.093 265.642C220.314 270.43 223.952 274.949 224.492 280.393C224.742 282.909 225.107 286.169 224.397 288.612C223.868 290.427 223.381 292.171 222.485 293.839C220.663 297.231 218.572 300.447 216.212 303.487C216.149 303.567 216.067 303.607 215.967 303.605C207.801 303.49 199.588 303.659 191.411 303.614C190.629 303.608 188.689 301.909 188.472 301.72ZM186.207 297.085C187.626 299.235 189.123 300.686 191.127 302.134C191.581 302.461 191.932 302.441 192.455 302.413C195.491 302.253 199.374 302.405 201.545 302.396C205.951 302.379 210.358 302.367 214.764 302.36C215.16 302.36 215.318 302.557 215.633 302.137C218.071 298.88 220.132 295.632 221.817 292.394C222.457 291.165 223.431 288.026 223.476 286.15C223.543 283.228 223.467 280.061 222.468 277.285C221.057 273.371 218.836 269.954 217.01 266.338C216.738 265.8 216.785 265.496 216.849 264.913C218.211 252.267 219.59 239.623 220.985 226.981C221.068 226.213 221.245 225.473 221.514 224.761C221.728 224.189 224.063 218.258 223.999 218.229C223.971 218.218 223.95 218.226 223.935 218.252C222.415 220.872 220.857 223.467 219.259 226.037C218.914 226.595 218.895 227.049 218.839 227.671C217.676 240.601 216.587 253.54 215.574 266.488C215.567 266.584 215.596 266.666 215.661 266.736C216.852 268.035 218.143 269.255 218.95 270.802C220.723 274.203 221.461 278.063 221.647 282.039C221.764 284.487 221.207 287.992 220.189 290.148C219.298 292.03 217.979 294.248 216.103 295.27C212.822 297.06 210.044 297.477 205.995 297.479C202.808 297.482 199.251 297.784 196.131 297.155C194.308 296.789 192.38 296.457 190.701 295.645C189.636 295.13 188.965 294.736 188.686 294.462C186.374 292.171 184.545 289.418 183.696 286.24C183.312 284.799 183.101 283.78 183.062 283.183C182.722 277.882 184.637 272.915 187.465 268.576C188.16 267.508 188.814 265.665 188.689 264.377C187.392 251.32 186.09 238.263 184.782 225.206C184.767 225.063 184.663 224.869 184.47 224.623C182.598 222.248 180.73 219.897 178.867 217.567C178.856 217.55 178.838 217.537 178.818 217.533C178.797 217.529 178.776 217.533 178.759 217.545C178.742 217.556 178.729 217.574 178.725 217.595C178.721 217.616 178.725 217.637 178.737 217.655C180.124 220.328 181.47 223.003 182.772 225.679C183.01 226.168 183.156 226.685 183.212 227.232C184.457 239.564 185.716 251.895 186.989 264.225C187.147 265.775 187.097 267.167 186.432 268.409C184.172 272.642 182.241 276.789 181.603 281.441C181.334 283.415 181.212 285.402 181.236 287.401C181.253 288.947 182.035 291.506 182.986 292.732C184.105 294.171 185.085 295.392 186.207 297.085Z" fill="black"/>
<path d="M164.693 193.563C165.198 193.592 165.619 193.431 165.956 193.082L172.461 190.625C172.477 190.619 172.486 190.607 172.486 190.588C172.486 190.577 172.486 190.566 172.486 190.557C172.951 190.502 173.369 190.331 173.738 190.041C173.783 190.051 173.827 190.048 173.872 190.033C179.486 188.053 185.149 186.225 190.86 184.55C190.925 184.531 190.976 184.493 191.013 184.437L191.063 184.358C191.56 184.497 192.028 184.423 192.466 184.135L198.274 182.546C198.287 182.543 198.296 182.534 198.299 182.521C198.303 182.495 198.307 182.469 198.311 182.445L198.636 182.586C198.664 182.899 198.552 183.087 198.299 183.149C196.162 183.67 194.353 184.166 192.872 184.64C192.392 184.614 191.947 184.727 191.539 184.981C185.68 186.63 179.885 188.489 174.156 190.557C173.681 190.587 173.283 190.771 172.962 191.109C172.793 191.1 172.682 191.105 172.63 191.123C170.497 191.871 168.402 192.7 166.346 193.611C165.823 193.589 165.421 193.748 165.141 194.09C161.363 195.627 157.617 197.273 153.903 199.03C153.842 199.058 153.79 199.104 153.754 199.161C153.718 199.219 153.699 199.286 153.699 199.354V222.876C153.699 222.981 153.741 223.002 153.825 222.938C157.966 219.771 162.239 216.812 166.644 214.062C166.85 213.932 166.9 213.82 166.861 213.58C166.892 213.695 166.951 213.776 167.036 213.823C167.12 213.866 167.2 213.861 167.278 213.808L168.907 212.679C173.931 209.694 179.049 206.887 184.261 204.259L185.091 203.851C191.477 200.78 197.969 197.969 204.567 195.42C204.602 195.407 204.623 195.383 204.628 195.347C204.634 195.317 204.638 195.29 204.642 195.265L206.387 194.865C206.422 194.858 206.44 194.835 206.44 194.798C206.44 194.769 206.44 194.741 206.44 194.713C206.826 194.685 207.154 194.54 207.425 194.279L208.667 194.057C208.958 194.053 209.097 194.17 209.084 194.409C208.726 194.448 208.401 194.566 208.11 194.761L207.403 195.124C206.743 195.123 206.163 195.334 205.664 195.758C204.895 196.014 203.131 196.688 200.37 197.782C189.544 202.068 179.135 207.216 169.143 213.225C169.06 213.274 169.047 213.339 169.104 213.42C168.175 213.562 167.483 214.013 167.031 214.772C167.021 214.736 167.007 214.705 166.986 214.679C166.931 214.608 166.868 214.601 166.8 214.659C166.669 214.772 166.571 214.91 166.427 214.998C162.081 217.697 157.882 220.61 153.827 223.738C153.755 223.794 153.719 223.869 153.719 223.963L153.658 325.084C153.658 325.104 153.653 325.124 153.644 325.142C153.635 325.16 153.621 325.175 153.604 325.186C153.588 325.198 153.569 325.205 153.549 325.206C153.529 325.208 153.509 325.205 153.491 325.197C108.585 306.851 77.4996 264.682 73.0883 215.956C67.8615 158.264 100.711 104.46 153.402 82.8399C153.427 82.8298 153.454 82.8261 153.481 82.8292C153.509 82.8323 153.535 82.842 153.557 82.8576C153.58 82.8731 153.598 82.894 153.611 82.9185C153.623 82.9429 153.63 82.9701 153.63 82.9977V101.868C153.63 101.971 153.585 102.047 153.496 102.096C152.519 102.623 151.256 103.206 150.529 103.589C100.363 129.929 77.6081 189.159 96.8091 242.926C96.815 242.942 96.8249 242.955 96.8377 242.966C96.8505 242.976 96.8657 242.982 96.8819 242.985C96.898 242.987 96.9145 242.985 96.9296 242.979C96.9447 242.972 96.9578 242.962 96.9677 242.949C107.686 228.134 121.763 216.44 137.348 207.252C137.54 207.141 137.718 207.012 137.883 206.866C137.948 206.809 137.98 206.738 137.98 206.652L137.989 145.626C137.988 145.548 138.007 145.471 138.043 145.402C138.079 145.333 138.131 145.273 138.195 145.229L153.686 134.601C153.791 134.529 153.843 134.557 153.841 134.685C153.699 155.888 153.691 177.083 153.705 198.286C153.705 198.391 153.752 198.423 153.847 198.382L164.693 193.563ZM137.833 207.66C122.37 216.832 107.61 228.739 97.2516 243.721C97.2232 243.763 97.2051 243.81 97.1988 243.86C97.1925 243.911 97.1982 243.961 97.2154 244.008C101.626 255.681 107.756 266.336 115.606 275.972C115.616 275.984 115.629 275.993 115.643 275.998C115.658 276.003 115.673 276.004 115.688 276.001C115.703 275.997 115.716 275.989 115.727 275.978C115.738 275.967 115.745 275.953 115.748 275.938C118.999 261.185 127.268 248.071 137.641 237.392C138.295 236.719 137.986 235.815 137.983 235.048C137.951 226.08 137.974 216.993 138.05 207.787C138.05 207.761 138.043 207.736 138.03 207.714C138.018 207.692 137.999 207.673 137.977 207.66C137.955 207.647 137.93 207.641 137.905 207.641C137.88 207.641 137.855 207.647 137.833 207.66ZM116.72 277.296C123.263 284.811 129.965 291.14 137.874 296.682C137.952 296.735 137.991 296.714 137.991 296.62L137.997 238.091C137.997 237.956 137.951 237.936 137.858 238.032C127.657 248.573 119.511 261.644 116.313 276.169C116.177 276.789 116.358 276.882 116.72 277.296Z" fill="white"/>
<path d="M212.708 211.994C212.279 212.905 211.825 213.774 211.344 214.6C211.125 214.976 210.997 215.366 210.96 215.77C210.935 216.06 210.384 223.566 210.375 223.566C210.355 223.564 210.345 223.553 210.345 223.532L210.289 215.051C210.287 214.95 210.317 214.859 210.378 214.781L212.599 211.926C212.837 211.618 212.873 211.641 212.708 211.994Z" fill="white"/>
<path d="M233.996 214.144C234.038 213.977 234.21 213.29 234.299 213.186C234.309 213.174 234.312 213.176 234.311 213.191L232.663 241.932C232.657 242.027 232.628 242.115 232.574 242.194L222.293 257.102C222.286 257.114 222.274 257.123 222.261 257.126C222.248 257.13 222.234 257.128 222.221 257.122C222.209 257.115 222.199 257.104 222.194 257.091C222.189 257.077 222.188 257.062 222.193 257.049C224.923 249.368 227.4 241.644 229.301 233.738C230.871 227.208 232.436 220.677 233.996 214.144Z" fill="white"/>
<path d="M169.104 213.419C171.179 221.623 173.294 229.809 175.45 237.978C175.953 239.883 176.508 241.674 177.117 243.352C179.278 249.299 181.639 255.163 184.2 260.945C184.62 261.898 183.696 262.365 183.098 261.726C178.854 257.193 174.606 252.665 170.354 248.142C170.245 248.029 170.109 247.697 170.089 247.499C169.067 236.597 168.047 225.688 167.031 214.772C167.483 214.013 168.175 213.562 169.104 213.419ZM168.406 215.984L171.325 247.201C171.333 247.291 171.368 247.368 171.431 247.432L181.545 258.161C181.71 258.336 181.744 258.313 181.648 258.091C178.837 251.698 176.012 245.006 174.214 238.243C172.238 230.816 170.325 223.391 168.475 215.969C168.472 215.962 168.466 215.955 168.459 215.951C168.451 215.947 168.443 215.946 168.435 215.948C168.426 215.949 168.419 215.954 168.414 215.96C168.408 215.967 168.406 215.975 168.406 215.984Z" fill="black"/>
<path d="M168.406 215.984C168.406 215.975 168.408 215.967 168.414 215.96C168.419 215.954 168.426 215.949 168.435 215.948C168.443 215.946 168.451 215.947 168.459 215.951C168.466 215.955 168.472 215.962 168.475 215.97C170.325 223.391 172.238 230.816 174.214 238.243C176.012 245.006 178.837 251.698 181.648 258.091C181.744 258.313 181.71 258.336 181.545 258.161L171.431 247.432C171.368 247.368 171.333 247.291 171.325 247.201L168.406 215.984Z" fill="white"/>
<path d="M191.127 302.134C189.123 300.686 187.626 299.235 186.207 297.085C185.085 295.391 184.105 294.171 182.986 292.732C182.035 291.506 181.253 288.947 181.236 287.401C181.212 285.402 181.334 283.415 181.603 281.441C182.241 276.789 184.172 272.642 186.432 268.409C187.097 267.167 187.147 265.775 186.989 264.225C185.716 251.895 184.457 239.564 183.212 227.232C183.156 226.685 183.01 226.168 182.772 225.679C181.47 223.002 180.125 220.328 178.737 217.654C178.725 217.637 178.721 217.615 178.725 217.595C178.729 217.574 178.742 217.556 178.759 217.545C178.776 217.533 178.797 217.529 178.818 217.533C178.838 217.537 178.856 217.55 178.867 217.567C180.73 219.896 182.598 222.248 184.47 224.623C184.663 224.869 184.767 225.063 184.782 225.206C186.09 238.263 187.392 251.32 188.689 264.377C188.814 265.665 188.16 267.508 187.465 268.576C184.637 272.915 182.722 277.882 183.062 283.182C183.101 283.78 183.312 284.799 183.696 286.24C184.545 289.418 186.374 292.171 188.686 294.462C188.965 294.736 189.636 295.13 190.701 295.645C192.38 296.457 194.308 296.789 196.131 297.155C199.251 297.784 202.808 297.482 205.995 297.479C210.044 297.477 212.822 297.06 216.103 295.27C217.979 294.247 219.298 292.03 220.189 290.148C221.207 287.992 221.764 284.487 221.647 282.038C221.461 278.063 220.723 274.203 218.95 270.802C218.143 269.255 216.852 268.035 215.661 266.736C215.596 266.666 215.567 266.583 215.574 266.488C216.587 253.54 217.676 240.601 218.839 227.671C218.895 227.049 218.914 226.595 219.259 226.037C220.857 223.467 222.415 220.872 223.935 218.252C223.95 218.226 223.971 218.218 223.999 218.229C224.063 218.257 221.728 224.189 221.514 224.761C221.245 225.473 221.068 226.213 220.985 226.981C219.59 239.623 218.211 252.267 216.849 264.913C216.785 265.496 216.738 265.8 217.01 266.338C218.836 269.953 221.057 273.371 222.468 277.285C223.467 280.06 223.543 283.228 223.476 286.149C223.431 288.026 222.457 291.165 221.817 292.393C220.132 295.632 218.071 298.88 215.633 302.137C215.318 302.557 215.16 302.36 214.764 302.36C210.358 302.367 205.951 302.379 201.545 302.396C199.374 302.405 195.491 302.253 192.455 302.413C191.932 302.441 191.581 302.461 191.127 302.134Z" fill="white"/>
<path d="M187.949 289.226C184.762 285.369 184.709 279.488 186.88 275.175C187.459 274.025 188.622 273.109 189.527 272.146C189.578 272.091 189.641 272.048 189.709 272.019C189.778 271.99 189.853 271.975 189.927 271.977C190.002 271.979 190.075 271.996 190.143 272.028C190.211 272.06 190.271 272.106 190.32 272.162C190.519 272.395 190.568 272.682 190.468 273.022C189.424 276.53 190.52 279.736 193.401 281.785C194.551 282.604 195.693 283.385 196.827 284.129C197.011 284.251 197.089 284.422 197.061 284.642C196.719 287.308 196.367 289.941 196.003 292.543C195.931 293.056 195.374 293.112 194.954 292.929C193.05 292.106 191.174 291.226 189.324 290.289C188.752 289.997 188.294 289.643 187.949 289.226ZM190.384 289.395C191.828 290.098 193.284 290.779 194.754 291.438C194.846 291.48 194.899 291.45 194.912 291.351L195.731 285.056C195.745 284.942 195.705 284.856 195.608 284.8C191.637 282.455 188.558 280.004 188.898 275.191C188.902 275.125 188.884 275.059 188.847 275.004C188.809 274.949 188.754 274.909 188.69 274.89C188.627 274.872 188.559 274.875 188.498 274.901C188.437 274.926 188.387 274.972 188.355 275.031C186.234 278.978 185.753 284.676 188.842 288.271C189.211 288.701 189.725 289.076 190.384 289.395Z" fill="black"/>
<path d="M215.363 272.664C217.953 275.651 219.472 279.072 219.919 282.929C220.122 284.67 219.599 287.26 218.191 288.426C215.861 290.348 212.207 291.54 210.247 292.171C209.787 292.321 209.509 292.16 209.413 291.689C208.902 289.191 208.43 286.627 207.996 283.997C207.975 283.869 207.993 283.737 208.048 283.621C208.104 283.504 208.193 283.407 208.305 283.343C209.503 282.656 210.666 281.835 211.792 280.88C212.833 279.998 213.543 278.852 214.35 277.725C215.179 276.569 214.333 274.346 213.918 273.146C213.735 272.616 213.771 272.202 214.33 272.013C214.421 271.983 214.509 271.99 214.595 272.033C214.86 272.166 215.116 272.377 215.363 272.664ZM215.881 275.651C216.234 276.837 215.764 278.108 214.959 279.074C214.35 279.812 213.938 280.666 213.262 281.289C212.093 282.365 210.82 283.328 209.443 284.177C209.369 284.224 209.339 284.291 209.354 284.377L210.409 290.59C210.424 290.682 210.474 290.712 210.559 290.68C212.505 289.981 217.127 288.699 218.093 286.42C218.625 285.163 218.85 284.185 218.63 282.765C218.241 280.256 217.388 277.856 216.073 275.566C216.059 275.544 216.039 275.528 216.014 275.52C215.99 275.512 215.964 275.514 215.94 275.524C215.917 275.534 215.898 275.553 215.887 275.576C215.876 275.599 215.874 275.626 215.881 275.651Z" fill="black"/>
<path d="M188.842 288.271C185.753 284.676 186.234 278.978 188.355 275.031C188.387 274.972 188.437 274.926 188.498 274.901C188.559 274.875 188.627 274.871 188.69 274.89C188.754 274.909 188.809 274.949 188.847 275.004C188.884 275.059 188.902 275.125 188.898 275.191C188.558 280.004 191.637 282.455 195.608 284.8C195.705 284.856 195.745 284.942 195.731 285.056L194.912 291.351C194.899 291.45 194.846 291.479 194.754 291.438C193.284 290.779 191.828 290.098 190.384 289.395C189.725 289.076 189.211 288.701 188.842 288.271Z" fill="white"/>
<path d="M214.959 279.074C215.764 278.108 216.234 276.837 215.881 275.651C215.874 275.626 215.876 275.6 215.887 275.576C215.898 275.553 215.917 275.535 215.94 275.524C215.964 275.514 215.99 275.513 216.014 275.52C216.039 275.528 216.059 275.544 216.073 275.566C217.388 277.856 218.241 280.256 218.63 282.765C218.85 284.186 218.625 285.163 218.093 286.42C217.127 288.7 212.505 289.982 210.559 290.68C210.474 290.712 210.424 290.682 210.409 290.59L209.354 284.377C209.339 284.291 209.369 284.224 209.443 284.177C210.82 283.328 212.093 282.365 213.262 281.289C213.938 280.666 214.35 279.813 214.959 279.074Z" fill="white"/>
</svg>
