<svg width="1728" height="670" viewBox="0 0 1728 670" fill="none" xmlns="http://www.w3.org/2000/svg">
<path d="M534 34L1727 668.5" stroke="#868686"/>
<path d="M-7 609L1057.02 278.222" stroke="#868686"/>
<path fill-rule="evenodd" clip-rule="evenodd" d="M1123 472C1192.04 472 1248 416.036 1248 347C1248 277.964 1192.04 222 1123 222C1053.96 222 998 277.964 998 347C998 416.036 1053.96 472 1123 472ZM1122.5 415C1159.23 415 1189 385.227 1189 348.5C1189 311.773 1159.23 282 1122.5 282C1085.77 282 1056 311.773 1056 348.5C1056 385.227 1085.77 415 1122.5 415Z" fill="#650015"/>
<path fill-rule="evenodd" clip-rule="evenodd" d="M551 250C620.036 250 676 194.036 676 125C676 55.9644 620.036 0 551 0C481.964 0 426 55.9644 426 125C426 194.036 481.964 250 551 250ZM550.5 193C587.227 193 617 163.227 617 126.5C617 89.7731 587.227 60 550.5 60C513.773 60 484 89.7731 484 126.5C484 163.227 513.773 193 550.5 193Z" fill="#650015"/>
</svg>
